<svg width="1440" height="90" viewBox="0 0 1440 90" fill="none" xmlns="http://www.w3.org/2000/svg">
<path d="M1391.65 36.7727H1389.04L1384.35 54.1875H1386.96L1391.65 36.7727Z" fill="white"/>
<path d="M1356.48 52.2131C1359.18 52.2131 1361 50.8991 1361.42 48.875L1358.63 48.6903C1358.32 49.5213 1357.54 49.9545 1356.53 49.9545C1355.02 49.9545 1354.06 48.9531 1354.06 47.3267V47.3196H1361.49V46.4886C1361.49 42.7812 1359.24 40.9489 1356.36 40.9489C1353.15 40.9489 1351.07 43.2287 1351.07 46.5952C1351.07 50.054 1353.12 52.2131 1356.48 52.2131ZM1354.06 45.4446C1354.12 44.2017 1355.07 43.2074 1356.41 43.2074C1357.72 43.2074 1358.63 44.1449 1358.64 45.4446H1354.06ZM1366.49 45.6932C1366.5 44.2869 1367.33 43.4631 1368.56 43.4631C1369.77 43.4631 1370.5 44.2585 1370.49 45.5938V52H1373.52V45.054C1373.52 42.5114 1372.03 40.9489 1369.76 40.9489C1368.14 40.9489 1366.96 41.7443 1366.47 43.0156H1366.35V41.0909H1363.46V52H1366.49V45.6932Z" fill="#BDAE82"/>
<path d="M1401.89 52H1404.92V45.8281C1404.92 44.4858 1405.9 43.5625 1407.24 43.5625C1407.65 43.5625 1408.23 43.6335 1408.51 43.7259V41.0412C1408.24 40.9773 1407.87 40.9347 1407.56 40.9347C1406.34 40.9347 1405.34 41.6449 1404.94 42.9943H1404.83V41.0909H1401.89V52ZM1417.07 47.3551C1417.08 48.8182 1416.08 49.5852 1414.99 49.5852C1413.85 49.5852 1413.11 48.7827 1413.1 47.4972V41.0909H1410.08V48.0369C1410.09 50.5866 1411.58 52.142 1413.77 52.142C1415.41 52.142 1416.59 51.2969 1417.08 50.0185H1417.19V52H1420.1V41.0909H1417.07V47.3551Z" fill="white"/>
<path d="M889.716 41.0909H891.42C891.342 38.8963 889.318 37.2557 886.506 37.2557C883.722 37.2557 881.534 38.875 881.534 41.3182C881.534 43.2784 882.955 44.4432 885.227 45.0966L887.017 45.608C888.551 46.0341 889.915 46.5739 889.915 48.0227C889.915 49.6136 888.381 50.6648 886.364 50.6648C884.631 50.6648 883.097 49.8977 882.955 48.25H881.136C881.307 50.6364 883.239 52.2557 886.364 52.2557C889.716 52.2557 891.619 50.4091 891.619 48.0511C891.619 45.3239 889.034 44.4432 887.528 44.0455L886.051 43.6477C884.972 43.3636 883.239 42.7955 883.239 41.233C883.239 39.8409 884.517 38.8182 886.449 38.8182C888.21 38.8182 889.545 39.6562 889.716 41.0909ZM894.288 52H895.964V47.9162L897.136 46.8295L901.22 52H903.35L898.4 45.75L903.01 41.0909H900.936L896.163 45.9489H895.964V37.4545H894.288V52ZM905.167 52H906.843V41.0909H905.167V52ZM906.019 39.2727C906.673 39.2727 907.212 38.7614 907.212 38.1364C907.212 37.5114 906.673 37 906.019 37C905.366 37 904.826 37.5114 904.826 38.1364C904.826 38.7614 905.366 39.2727 906.019 39.2727ZM911.589 37.4545H909.913V52H911.589V37.4545ZM916.335 37.4545H914.659V52H916.335V37.4545ZM927.132 43.5341C926.607 41.9858 925.428 40.9489 923.269 40.9489C920.968 40.9489 919.263 42.2557 919.263 44.1023C919.263 45.608 920.158 46.6165 922.161 47.0852L923.979 47.5114C925.08 47.767 925.598 48.2926 925.598 49.0455C925.598 49.983 924.604 50.75 923.042 50.75C921.671 50.75 920.811 50.1605 920.513 48.9886L918.922 49.3864C919.313 51.2401 920.84 52.2273 923.07 52.2273C925.605 52.2273 927.331 50.8423 927.331 48.9602C927.331 47.4403 926.38 46.4815 924.434 46.0057L922.814 45.608C921.522 45.2884 920.939 44.8551 920.939 44.017C920.939 43.0795 921.934 42.3977 923.269 42.3977C924.732 42.3977 925.336 43.2074 925.627 43.9602L927.132 43.5341Z" fill="white"/>
<path d="M1072.36 37.4545H1070.51L1075.85 52H1077.67L1083.01 37.4545H1081.16L1076.85 49.6989H1076.68L1072.36 37.4545ZM1085.05 52H1086.73V41.0909H1085.05V52ZM1085.9 39.2727C1086.56 39.2727 1087.1 38.7614 1087.1 38.1364C1087.1 37.5114 1086.56 37 1085.9 37C1085.25 37 1084.71 37.5114 1084.71 38.1364C1084.71 38.7614 1085.25 39.2727 1085.9 39.2727ZM1093.92 52.2273C1096.02 52.2273 1096.73 50.9205 1097.1 50.3239H1097.3V52H1098.92V37.4545H1097.24V42.8239H1097.1C1096.73 42.2557 1096.07 40.9489 1093.94 40.9489C1091.19 40.9489 1089.28 43.1364 1089.28 46.5739C1089.28 50.0398 1091.19 52.2273 1093.92 52.2273ZM1094.14 50.7216C1092.04 50.7216 1090.96 48.875 1090.96 46.5455C1090.96 44.2443 1092.01 42.4545 1094.14 42.4545C1096.19 42.4545 1097.27 44.1023 1097.27 46.5455C1097.27 49.017 1096.16 50.7216 1094.14 50.7216ZM1106.79 52.2273C1109.01 52.2273 1110.63 51.1193 1111.14 49.4716L1109.52 49.017C1109.09 50.1534 1108.11 50.7216 1106.79 50.7216C1104.82 50.7216 1103.47 49.4503 1103.39 47.1136H1111.31V46.4034C1111.31 42.3409 1108.89 40.9489 1106.62 40.9489C1103.67 40.9489 1101.71 43.2784 1101.71 46.6307C1101.71 49.983 1103.64 52.2273 1106.79 52.2273ZM1103.39 45.6648C1103.5 43.9673 1104.7 42.4545 1106.62 42.4545C1108.44 42.4545 1109.6 43.8182 1109.6 45.6648H1103.39ZM1118.29 52.2273C1121.24 52.2273 1123.23 49.983 1123.23 46.6023C1123.23 43.1932 1121.24 40.9489 1118.29 40.9489C1115.34 40.9489 1113.35 43.1932 1113.35 46.6023C1113.35 49.983 1115.34 52.2273 1118.29 52.2273ZM1118.29 50.7216C1116.05 50.7216 1115.02 48.7898 1115.02 46.6023C1115.02 44.4148 1116.05 42.4545 1118.29 42.4545C1120.53 42.4545 1121.56 44.4148 1121.56 46.6023C1121.56 48.7898 1120.53 50.7216 1118.29 50.7216Z" fill="white"/>
<path d="M1246.47 42C1245.93 39.017 1243.54 37.2557 1240.61 37.2557C1236.89 37.2557 1234.19 40.125 1234.19 44.7273C1234.19 49.3295 1236.89 52.1989 1240.61 52.1989C1243.54 52.1989 1245.93 50.4375 1246.47 47.4545H1244.7C1244.28 49.4716 1242.55 50.5511 1240.61 50.5511C1237.97 50.5511 1235.9 48.5057 1235.9 44.7273C1235.9 40.9489 1237.97 38.9034 1240.61 38.9034C1242.55 38.9034 1244.28 39.983 1244.7 42H1246.47ZM1253.52 52.2273C1256.47 52.2273 1258.46 49.983 1258.46 46.6023C1258.46 43.1932 1256.47 40.9489 1253.52 40.9489C1250.56 40.9489 1248.57 43.1932 1248.57 46.6023C1248.57 49.983 1250.56 52.2273 1253.52 52.2273ZM1253.52 50.7216C1251.27 50.7216 1250.25 48.7898 1250.25 46.6023C1250.25 44.4148 1251.27 42.4545 1253.52 42.4545C1255.76 42.4545 1256.78 44.4148 1256.78 46.6023C1256.78 48.7898 1255.76 50.7216 1253.52 50.7216ZM1262.69 45.4375C1262.69 43.5341 1263.87 42.4545 1265.48 42.4545C1267.03 42.4545 1267.98 43.4702 1267.98 45.1818V52H1269.65V45.0682C1269.65 42.2841 1268.17 40.9489 1265.96 40.9489C1264.31 40.9489 1263.29 41.6875 1262.78 42.7955H1262.64V41.0909H1261.02V52H1262.69V45.4375ZM1277.46 41.0909H1275.13V38.4773H1273.46V41.0909H1271.81V42.5114H1273.46V49.3295C1273.46 51.233 1274.99 52.142 1276.41 52.142C1277.04 52.142 1277.43 52.0284 1277.66 51.9432L1277.32 50.4375C1277.18 50.4659 1276.95 50.5227 1276.58 50.5227C1275.84 50.5227 1275.13 50.2955 1275.13 48.875V42.5114H1277.46V41.0909ZM1283.19 52.2557C1285.1 52.2557 1286.09 51.233 1286.43 50.5227H1286.52V52H1288.19V44.8125C1288.19 41.3466 1285.55 40.9489 1284.16 40.9489C1282.51 40.9489 1280.64 41.517 1279.78 43.5057L1281.38 44.0739C1281.74 43.2784 1282.62 42.4261 1284.22 42.4261C1285.76 42.4261 1286.52 43.2429 1286.52 44.642V44.6989C1286.52 45.5085 1285.69 45.4375 1283.7 45.6932C1281.68 45.956 1279.47 46.4034 1279.47 48.9034C1279.47 51.0341 1281.12 52.2557 1283.19 52.2557ZM1283.45 50.75C1282.11 50.75 1281.15 50.1534 1281.15 48.9886C1281.15 47.7102 1282.31 47.3125 1283.62 47.142C1284.33 47.0568 1286.23 46.858 1286.52 46.517V48.0511C1286.52 49.4148 1285.44 50.75 1283.45 50.75ZM1295.68 52.2273C1298.1 52.2273 1299.69 50.75 1299.97 48.8182H1298.3C1297.99 50.0114 1296.99 50.7216 1295.68 50.7216C1293.7 50.7216 1292.42 49.0739 1292.42 46.5455C1292.42 44.0739 1293.72 42.4545 1295.68 42.4545C1297.16 42.4545 1298.04 43.3636 1298.3 44.358H1299.97C1299.69 42.3125 1297.96 40.9489 1295.66 40.9489C1292.7 40.9489 1290.74 43.2784 1290.74 46.6023C1290.74 49.8693 1292.62 52.2273 1295.68 52.2273ZM1307.17 41.0909H1304.84V38.4773H1303.16V41.0909H1301.52V42.5114H1303.16V49.3295C1303.16 51.233 1304.7 52.142 1306.12 52.142C1306.74 52.142 1307.14 52.0284 1307.37 51.9432L1307.03 50.4375C1306.88 50.4659 1306.66 50.5227 1306.29 50.5227C1305.55 50.5227 1304.84 50.2955 1304.84 48.875V42.5114H1307.17V41.0909ZM1317.22 43.5341C1316.7 41.9858 1315.52 40.9489 1313.36 40.9489C1311.06 40.9489 1309.35 42.2557 1309.35 44.1023C1309.35 45.608 1310.25 46.6165 1312.25 47.0852L1314.07 47.5114C1315.17 47.767 1315.69 48.2926 1315.69 49.0455C1315.69 49.983 1314.69 50.75 1313.13 50.75C1311.76 50.75 1310.9 50.1605 1310.6 48.9886L1309.01 49.3864C1309.4 51.2401 1310.93 52.2273 1313.16 52.2273C1315.7 52.2273 1317.42 50.8423 1317.42 48.9602C1317.42 47.4403 1316.47 46.4815 1314.52 46.0057L1312.9 45.608C1311.61 45.2884 1311.03 44.8551 1311.03 44.017C1311.03 43.0795 1312.02 42.3977 1313.36 42.3977C1314.82 42.3977 1315.43 43.2074 1315.72 43.9602L1317.22 43.5341Z" fill="white"/>
<path d="M960.761 52H962.523V46.6875H965.705C969.092 46.6875 970.619 44.6278 970.619 42.0568C970.619 39.4858 969.092 37.4545 965.676 37.4545H960.761V52ZM962.523 45.125V39.017H965.619C967.984 39.017 968.886 40.3097 968.886 42.0568C968.886 43.804 967.984 45.125 965.648 45.125H962.523ZM977.544 52.2273C980.499 52.2273 982.487 49.983 982.487 46.6023C982.487 43.1932 980.499 40.9489 977.544 40.9489C974.589 40.9489 972.601 43.1932 972.601 46.6023C972.601 49.983 974.589 52.2273 977.544 52.2273ZM977.544 50.7216C975.3 50.7216 974.277 48.7898 974.277 46.6023C974.277 44.4148 975.3 42.4545 977.544 42.4545C979.788 42.4545 980.811 44.4148 980.811 46.6023C980.811 48.7898 979.788 50.7216 977.544 50.7216ZM985.046 52H986.722V45.0966C986.722 43.6193 987.887 42.5398 989.478 42.5398C989.925 42.5398 990.387 42.625 990.5 42.6534V40.9489C990.309 40.9347 989.868 40.9205 989.62 40.9205C988.313 40.9205 987.176 41.6591 986.779 42.7386H986.665V41.0909H985.046V52ZM997.915 41.0909H995.586V38.4773H993.909V41.0909H992.262V42.5114H993.909V49.3295C993.909 51.233 995.444 52.142 996.864 52.142C997.489 52.142 997.887 52.0284 998.114 51.9432L997.773 50.4375C997.631 50.4659 997.404 50.5227 997.034 50.5227C996.296 50.5227 995.586 50.2955 995.586 48.875V42.5114H997.915V41.0909ZM1005.29 41.0909H1002.85V39.983C1002.85 38.9034 1003.31 38.3352 1004.41 38.3352C1004.9 38.3352 1005.18 38.4489 1005.35 38.5057L1005.83 37.0568C1005.58 36.9432 1005.07 36.7727 1004.24 36.7727C1002.68 36.7727 1001.18 37.7102 1001.18 39.5852V41.0909H999.414V42.5114H1001.18V52H1002.85V42.5114H1005.29V41.0909ZM1011.63 52.2273C1014.58 52.2273 1016.57 49.983 1016.57 46.6023C1016.57 43.1932 1014.58 40.9489 1011.63 40.9489C1008.67 40.9489 1006.68 43.1932 1006.68 46.6023C1006.68 49.983 1008.67 52.2273 1011.63 52.2273ZM1011.63 50.7216C1009.38 50.7216 1008.36 48.7898 1008.36 46.6023C1008.36 44.4148 1009.38 42.4545 1011.63 42.4545C1013.87 42.4545 1014.89 44.4148 1014.89 46.6023C1014.89 48.7898 1013.87 50.7216 1011.63 50.7216ZM1020.8 37.4545H1019.13V52H1020.8V37.4545ZM1023.87 52H1025.55V41.0909H1023.87V52ZM1024.73 39.2727C1025.38 39.2727 1025.92 38.7614 1025.92 38.1364C1025.92 37.5114 1025.38 37 1024.73 37C1024.07 37 1023.53 37.5114 1023.53 38.1364C1023.53 38.7614 1024.07 39.2727 1024.73 39.2727ZM1033.05 52.2273C1036.01 52.2273 1038 49.983 1038 46.6023C1038 43.1932 1036.01 40.9489 1033.05 40.9489C1030.1 40.9489 1028.11 43.1932 1028.11 46.6023C1028.11 49.983 1030.1 52.2273 1033.05 52.2273ZM1033.05 50.7216C1030.81 50.7216 1029.78 48.7898 1029.78 46.6023C1029.78 44.4148 1030.81 42.4545 1033.05 42.4545C1035.3 42.4545 1036.32 44.4148 1036.32 46.6023C1036.32 48.7898 1035.3 50.7216 1033.05 50.7216Z" fill="white"/>
<path d="M1156.76 52H1158.52V46.6875H1161.7C1165.09 46.6875 1166.62 44.6278 1166.62 42.0568C1166.62 39.4858 1165.09 37.4545 1161.68 37.4545H1156.76V52ZM1158.52 45.125V39.017H1161.62C1163.98 39.017 1164.89 40.3097 1164.89 42.0568C1164.89 43.804 1163.98 45.125 1161.65 45.125H1158.52ZM1169.23 52H1170.91V45.0966C1170.91 43.6193 1172.07 42.5398 1173.66 42.5398C1174.11 42.5398 1174.57 42.625 1174.68 42.6534V40.9489C1174.49 40.9347 1174.05 40.9205 1173.8 40.9205C1172.5 40.9205 1171.36 41.6591 1170.96 42.7386H1170.85V41.0909H1169.23V52ZM1176.67 52H1178.35V41.0909H1176.67V52ZM1177.52 39.2727C1178.18 39.2727 1178.72 38.7614 1178.72 38.1364C1178.72 37.5114 1178.18 37 1177.52 37C1176.87 37 1176.33 37.5114 1176.33 38.1364C1176.33 38.7614 1176.87 39.2727 1177.52 39.2727ZM1185.85 52.2273C1188.26 52.2273 1189.85 50.75 1190.14 48.8182H1188.46C1188.15 50.0114 1187.16 50.7216 1185.85 50.7216C1183.86 50.7216 1182.58 49.0739 1182.58 46.5455C1182.58 44.0739 1183.89 42.4545 1185.85 42.4545C1187.33 42.4545 1188.21 43.3636 1188.46 44.358H1190.14C1189.85 42.3125 1188.12 40.9489 1185.82 40.9489C1182.87 40.9489 1180.91 43.2784 1180.91 46.6023C1180.91 49.8693 1182.78 52.2273 1185.85 52.2273ZM1197.16 52.2273C1199.38 52.2273 1201 51.1193 1201.51 49.4716L1199.89 49.017C1199.46 50.1534 1198.48 50.7216 1197.16 50.7216C1195.2 50.7216 1193.84 49.4503 1193.76 47.1136H1201.68V46.4034C1201.68 42.3409 1199.26 40.9489 1196.99 40.9489C1194.04 40.9489 1192.08 43.2784 1192.08 46.6307C1192.08 49.983 1194.01 52.2273 1197.16 52.2273ZM1193.76 45.6648C1193.87 43.9673 1195.07 42.4545 1196.99 42.4545C1198.81 42.4545 1199.98 43.8182 1199.98 45.6648H1193.76Z" fill="white"/>
<path d="M40.4506 25.2592C39.0919 25.6969 37.9456 26.4765 37.6601 27.1563L37.5398 27.4419L35.6561 27.433L35.4116 26.9301C35.2253 26.5467 35.063 26.3708 34.7263 26.187L34.2864 25.9459H31.1062C26.935 25.9459 26.4089 26.1534 26.4089 27.8035V28.268L25.6996 28.6148C23.0844 29.8924 21.0354 32.416 20.2258 35.3546L20.0003 36.1748V46.2584C20.0003 57.2698 19.9673 56.5584 20.5474 58.1166C21.848 61.6086 24.8629 64.1352 28.5492 64.8258C29.7886 65.0581 60.2114 65.0581 61.4508 64.8258C65.1371 64.1362 68.152 61.6096 69.4526 58.1166C70.0327 56.5584 69.9997 57.2698 69.9997 46.2584V36.1748L69.7832 35.4031C68.649 31.3647 65.7433 28.6118 61.6342 27.679C61.02 27.5397 60.2134 27.5051 56.6765 27.4686L52.4532 27.4241L52.3369 27.1474C52.0504 26.4657 50.8209 25.6455 49.4663 25.2335C48.3992 24.9084 41.4756 24.9282 40.4506 25.2592ZM60.0601 30.8222C63.053 31.1256 65.3856 32.9526 66.3976 35.7874L66.6731 36.5591L66.7012 45.871C66.7332 56.5189 66.7653 56.0218 65.9236 57.7342C64.9758 59.662 63.064 61.1205 60.9288 61.5453C59.7856 61.7726 30.2114 61.7726 29.0712 61.5453C26.9159 61.1145 25.0112 59.6284 24.0092 57.5949C23.2447 56.0426 23.2668 56.4072 23.2988 45.871L23.3269 36.5591L23.6315 35.7163C24.6084 33.0168 26.9961 31.1167 29.7736 30.8291C30.9589 30.7066 58.8517 30.6997 60.0601 30.8212V30.8222ZM29.5171 31.8884C26.3789 32.3419 24.3539 34.8942 24.3539 38.398V39.6954H31.0661L31.2915 39.2369C32.2845 37.2123 34.2844 35.0167 36.4357 33.5869C37.2402 33.0524 39.3614 31.9763 39.6109 31.9763C39.669 31.9763 39.7161 31.9328 39.7161 31.8795C39.7161 31.7609 30.3457 31.7678 29.5171 31.8874V31.8884ZM50.2839 31.8548C50.2839 31.9002 50.4492 31.9951 50.6506 32.0652C53.7206 33.1294 57.462 36.4702 58.7385 39.2863L58.9249 39.6964H65.6471V38.399C65.6471 35.1284 64.1341 32.9842 61.1462 32.0168C60.5581 31.8261 50.2849 31.674 50.2849 31.8558L50.2839 31.8548ZM44.0707 32.5178C32.6663 33.6156 27.1324 45.9748 34.0931 54.7976C41.7892 64.5512 57.8768 59.7015 58.8858 47.3236C59.5611 39.0343 52.2528 31.7313 44.0707 32.5178ZM46.6638 35.9455C53.2327 36.8753 57.3277 43.963 54.8278 50.0774C51.9482 57.1216 42.708 58.9279 37.4136 53.4804C30.3908 46.2544 36.5819 34.5187 46.6638 35.9455ZM43.8723 37.5719C37.9617 38.395 34.553 44.3474 36.8885 49.7701C39.5698 55.9942 48.5605 56.7659 52.376 51.1001C56.5512 44.9007 51.2949 36.5394 43.8723 37.5719ZM47.7168 38.9098C48.8581 39.2596 49.7118 40.0768 49.7318 40.8366C49.7779 42.5886 46.2289 42.5332 45.0416 40.7635C44.1388 39.4187 45.747 38.3051 47.7168 38.9098ZM42.701 52.2552C43.7821 52.4805 45.3923 53.4557 45.3923 53.8846C45.3923 54.8865 41.7581 54.2393 40.697 53.0486C39.9636 52.2246 40.8564 51.8708 42.701 52.2552ZM61.9128 55.9991C59.8938 56.6167 60.2846 59.3863 62.3897 59.3794C64.5309 59.3725 64.6902 56.2629 62.564 55.9734C62.3486 55.9438 62.056 55.9556 61.9128 56.0001V55.9991Z" fill="white"/>
</svg>
